<svg xmlns="http://www.w3.org/2000/svg" width="122" height="122" viewBox="0 0 122 122" fill="none">
<path d="M33.9547 96.1268H22.4981C22.166 96.1268 22 95.9607 22 95.6287L22.1992 25.5442C22.1992 25.2786 22.3321 25.1458 22.5977 25.1458H42.2234C48.4664 25.1458 53.3977 27.0552 57.0173 30.874C60.6701 34.6597 62.4965 39.8235 62.4965 46.3653C62.4965 51.1472 61.5501 55.3148 59.6573 58.868C57.7312 62.388 55.2407 65.111 52.1856 67.037C49.1305 68.963 45.8098 69.926 42.2234 69.926H34.4528V95.6287C34.4528 95.9607 34.2868 96.1268 33.9547 96.1268ZM42.2234 37.2499L34.4528 37.3495V57.5729H42.2234C44.3818 57.5729 46.2581 56.5434 47.852 54.4846C49.446 52.3925 50.243 49.6861 50.243 46.3653C50.243 43.7087 49.529 41.5336 48.1011 39.8401C46.6732 38.1133 44.7139 37.2499 42.2234 37.2499Z" fill="url(#paint0_linear_6_14706)"/>
<path d="M80.9759 97.2723C77.4227 97.2723 74.1185 96.3259 71.0634 94.4331C68.0416 92.5735 65.6174 90.0829 63.791 86.9614C61.9978 83.8067 61.1012 80.3697 61.1012 76.6505V72.0678C61.1012 71.7026 61.234 71.5199 61.4997 71.5199H72.9563C73.2884 71.5199 73.4544 71.7026 73.4544 72.0678V76.6505C73.4544 78.8754 74.1683 80.8014 75.5963 82.4286C77.0242 84.0225 78.8174 84.8195 80.9759 84.8195C83.3668 84.8195 85.243 83.9893 86.6045 82.329C87.966 80.6354 88.6468 78.7425 88.6468 76.6505V73.9109C88.6468 71.7856 87.9826 69.8761 86.6543 68.1826C85.326 66.489 83.6491 65.6422 81.6234 65.6422H77.6385C77.3064 65.6422 77.1404 65.4596 77.1404 65.0943L77.24 53.6875C77.24 53.4218 77.3728 53.289 77.6385 53.289H81.6234C83.4498 53.289 85.077 52.575 86.5049 51.1471C87.9328 49.7192 88.6468 47.843 88.6468 45.5185V44.1237C88.6468 41.932 87.9162 40.0724 86.4551 38.5449C84.994 37.0173 83.1676 36.2536 80.9759 36.2536C78.8838 36.2536 77.1072 37.0173 75.6461 38.5449C74.1849 40.0724 73.4544 41.932 73.4544 44.1237V49.0052C73.4544 49.3373 73.3216 49.5034 73.0559 49.5034H61.5993C61.3337 49.5034 61.2008 49.3373 61.2008 49.0052V43.5758C61.2008 39.8566 62.1472 36.5358 64.0401 33.6136C65.8997 30.6913 68.3404 28.3668 71.3623 26.64C74.3842 24.88 77.5887 24 80.9759 24C84.6619 24 88.0158 24.8966 91.0377 26.6898C94.0596 28.5162 96.4505 30.9238 98.2105 33.9124C100.004 36.9011 100.9 40.1887 100.9 43.7751V45.4188C100.9 48.4075 100.402 50.9977 99.406 53.1894C98.4098 55.3479 97.0317 57.4233 95.2717 59.4158C97.0317 61.4414 98.4264 63.6663 99.4558 66.0905C100.485 68.5146 101 71.0052 101 73.5622V76.6505C101 80.4361 100.103 83.9063 98.3102 87.061C96.4837 90.1825 94.0596 92.6731 91.0377 94.5327C88.0158 96.3591 84.6619 97.2723 80.9759 97.2723Z" fill="url(#paint1_linear_6_14706)"/>
<defs>
<linearGradient id="paint0_linear_6_14706" x1="22" y1="97.2724" x2="101" y2="97.2724" gradientUnits="userSpaceOnUse">
<stop stop-color="#1D5CFF"/>
<stop offset="0.552083" stop-color="#9A41FA"/>
<stop offset="1" stop-color="#D940A4"/>
</linearGradient>
<linearGradient id="paint1_linear_6_14706" x1="22" y1="97.2724" x2="101" y2="97.2724" gradientUnits="userSpaceOnUse">
<stop stop-color="#1D5CFF"/>
<stop offset="0.552083" stop-color="#9A41FA"/>
<stop offset="1" stop-color="#D940A4"/>
</linearGradient>
</defs>
</svg>